<?xml version="1.0" encoding="utf-8"?>
<!-- Generator: Adobe Illustrator 23.1.0, SVG Export Plug-In . SVG Version: 6.00 Build 0)  -->
<svg version="1.1" id="Layer_1" xmlns="http://www.w3.org/2000/svg" xmlns:xlink="http://www.w3.org/1999/xlink" x="0px" y="0px"
	 width="219.485px" height="34px" viewBox="0 0 219.485 34" enable-background="new 0 0 219.485 34" xml:space="preserve">
<metadata><?xpacket begin="﻿" id="W5M0MpCehiHzreSzNTczkc9d"?>
<x:xmpmeta xmlns:x="adobe:ns:meta/" x:xmptk="Adobe XMP Core 5.6-c145 79.163499, 2018/08/13-16:40:22        ">
   <rdf:RDF xmlns:rdf="http://www.w3.org/1999/02/22-rdf-syntax-ns#">
      <rdf:Description rdf:about=""
            xmlns:dc="http://purl.org/dc/elements/1.1/"
            xmlns:xmp="http://ns.adobe.com/xap/1.0/"
            xmlns:xmpGImg="http://ns.adobe.com/xap/1.0/g/img/"
            xmlns:xmpMM="http://ns.adobe.com/xap/1.0/mm/"
            xmlns:stRef="http://ns.adobe.com/xap/1.0/sType/ResourceRef#"
            xmlns:stEvt="http://ns.adobe.com/xap/1.0/sType/ResourceEvent#"
            xmlns:illustrator="http://ns.adobe.com/illustrator/1.0/"
            xmlns:xmpTPg="http://ns.adobe.com/xap/1.0/t/pg/"
            xmlns:stDim="http://ns.adobe.com/xap/1.0/sType/Dimensions#"
            xmlns:xmpG="http://ns.adobe.com/xap/1.0/g/"
            xmlns:pdf="http://ns.adobe.com/pdf/1.3/"
            xmlns:pdfx="http://ns.adobe.com/pdfx/1.3/">
         <dc:format>image/svg+xml</dc:format>
         <dc:title>
            <rdf:Alt>
               <rdf:li xml:lang="x-default">Web</rdf:li>
            </rdf:Alt>
         </dc:title>
         <xmp:CreatorTool>Adobe Illustrator CC 23.1 (Macintosh)</xmp:CreatorTool>
         <xmp:CreateDate>2021-08-03T11:32:45+02:00</xmp:CreateDate>
         <xmp:ModifyDate>2021-08-03T11:32:45+02:00</xmp:ModifyDate>
         <xmp:MetadataDate>2021-08-03T11:32:45+02:00</xmp:MetadataDate>
         <xmp:Thumbnails>
            <rdf:Alt>
               <rdf:li rdf:parseType="Resource">
                  <xmpGImg:width>256</xmpGImg:width>
                  <xmpGImg:height>40</xmpGImg:height>
                  <xmpGImg:format>JPEG</xmpGImg:format>
                  <xmpGImg:image>/9j/4AAQSkZJRgABAgEASABIAAD/7QAsUGhvdG9zaG9wIDMuMAA4QklNA+0AAAAAABAASAAAAAEA&#xA;AQBIAAAAAQAB/+4ADkFkb2JlAGTAAAAAAf/bAIQABgQEBAUEBgUFBgkGBQYJCwgGBggLDAoKCwoK&#xA;DBAMDAwMDAwQDA4PEA8ODBMTFBQTExwbGxscHx8fHx8fHx8fHwEHBwcNDA0YEBAYGhURFRofHx8f&#xA;Hx8fHx8fHx8fHx8fHx8fHx8fHx8fHx8fHx8fHx8fHx8fHx8fHx8fHx8fHx8f/8AAEQgAKAEAAwER&#xA;AAIRAQMRAf/EAaIAAAAHAQEBAQEAAAAAAAAAAAQFAwIGAQAHCAkKCwEAAgIDAQEBAQEAAAAAAAAA&#xA;AQACAwQFBgcICQoLEAACAQMDAgQCBgcDBAIGAnMBAgMRBAAFIRIxQVEGE2EicYEUMpGhBxWxQiPB&#xA;UtHhMxZi8CRygvElQzRTkqKyY3PCNUQnk6OzNhdUZHTD0uIIJoMJChgZhJRFRqS0VtNVKBry4/PE&#xA;1OT0ZXWFlaW1xdXl9WZ2hpamtsbW5vY3R1dnd4eXp7fH1+f3OEhYaHiImKi4yNjo+Ck5SVlpeYmZ&#xA;qbnJ2en5KjpKWmp6ipqqusra6voRAAICAQIDBQUEBQYECAMDbQEAAhEDBCESMUEFURNhIgZxgZEy&#xA;obHwFMHR4SNCFVJicvEzJDRDghaSUyWiY7LCB3PSNeJEgxdUkwgJChgZJjZFGidkdFU38qOzwygp&#xA;0+PzhJSktMTU5PRldYWVpbXF1eX1RlZmdoaWprbG1ub2R1dnd4eXp7fH1+f3OEhYaHiImKi4yNjo&#xA;+DlJWWl5iZmpucnZ6fkqOkpaanqKmqq6ytrq+v/aAAwDAQACEQMRAD8AC/8AOTPkPzD5FtrLzH5Q&#xA;1vV7TQLiQ219p63908dtM1WjeMtIzBJKMCCdmp/NQKpD/wA4vufO3ni90/zfrWo6lHa2TXVhp099&#xA;delJKsiIzmki8iivsvepPbFX2giKiKiiiqAAPYYqxH8x/Ieh+Z9Fupbya4sb+2t5DZ6pa3E1vJbs&#xA;gLq/7t1VgrbkMDirwr/nHL8r/MPm7Rh5s8765q15o8zldK0lr+6VJxGxVp5uLhigcURQRWhrtSqr&#xA;6gtreG2t4raFeMMKLHEtSaKgooqak7Dvir411H/nIu4g/wCcim8yx3DP5Ugf9CtECSjaeHo84Xuf&#xA;VrMvfouKvsyOSOWNZI2DxuAyOpBVlIqCCOoOKrsVef8A5weSNI1fylresc7mz1vT9OuJ7HUbS5ng&#xA;kjkt4nkjqI3VWXkNwR0xV8eflBq3mfzd+ZWg+XdY8xatLpd/OVvIRfXI9SOONpShPPYPw4mm9MVf&#xA;emiaFpeiWIsdMhMFqGLhC8kh5EAE8pGdu3jiqPxVLPMHlrRfMFmtnq0DTwI3NVWWWFg1CKh4Wjbo&#xA;fHFX56fmFe+YPL3nvzBoVprV+bTTdQuba2LXUzN6UcrCPkeQq3GlcVfW2g/841eVm0Gz+v67r1zf&#xA;ywRvcXS6hJGPUZAW4IBxVa9Aan3OKvKvze/Jfzj+Xktj5m8u+ZtU1DQYryBLlLi4f6xas8iiN2ZC&#xA;qSIWoteIoSNj1xV9e4q+Yvzt/O7zRqP5kWf5XeTL9tHWa9ttN1HWYv783F06oUibYxpF6g5FSGLD&#xA;YgdVXqa/846/lNJp/wBV1HSG1W4ZeM2p3txPLeSN3czcwymu/wANB7Yq8Dv/ACV5t/KD88/Kel6L&#xA;rF6vlLX9UtEtF9VxHJBJdRx3FrOgpG7IHG/HcFW2PRV9ca1omma1YNYalCZ7VyGZA7xmo6ENGyMP&#xA;vxV8H/nRf+Z/Jf5na75a0bzFq0Wl2MkTWkJv7luEdxbx3ASpetF9Wgr+OKvrb8kfJmk6f5I8va+0&#xA;lze65qmmW95e6heXM88jPdxLMygO7IAvPiKL0HjirEf+cltJsWs7GPy7LexfmRrV1FDo8OnXU8cs&#xA;0aDjMZI1kWNYkiG7kChpvTliqp+XX/OO2r2lnHc+ffNmr6veyr+90q31G7itEDdUeRZFllPuCo9j&#xA;1xV7Jouh6XolglhpkJgtUJKoXeQ1PUlpGdj9JxVHYqxD82fPUHkfyBq3mF2X6zBF6enxtT47qX4I&#xA;VoetGPJv8kHFXh3/ADh7+atxfNqXkrWrtp7xnk1LSppnLO/M1uoqsdzyPqge7ntir6gxV2KpF568&#xA;o6f5w8o6p5bv9rfUoGiElKmOQUaKUDxjkVWHyxV+e3lfWtc/LT8yba+kjaLUdAvWhvrb+ZUYxXEW&#xA;9NnQsAfpxV+jmlanY6rplpqdhKJ7G+hS4tZl6PFKodGHzBxV59/zkBrl9aeQzoGlN/uc83XMOg6c&#xA;orUG7PGZzTfisIYFu1RirO/Luh2OgaDp2iWC8bPTbeK1gGwJWJAgJp+0aVPvirCfz381X+keSzo+&#xA;jHl5l81TJouixA0b1Lr4JJajdRHGSeX7Jpir5J/5yF/JxPy31/Tl08vLomo2kfoTvUn6zbosdyG6&#xA;7u1Jf9lQdMVfRv8Azif+ZP8AifyANBvZeer+WuFseR+J7Ngfqz/7AKY/9iPHFXt+Ksf/ADD/AOUA&#xA;8zf9sq+/6hnxV8Lf843f+Tt8rf8AGeb/AKhpcVfoTirsVdir84Pzr/8AJueb/wDtq3X/ACdOKv0V&#xA;0n/jlWX/ABgi/wCIDFUu1268vXt7B5S1WIXTazb3EwtWFUaG1aISFtwRRpk4074qneKvz4/PTSdd&#xA;8pfnZrd2xkguJtQOs6XdHeqTSmeJ0J6hHqnsVpir66/Jn89fLP5i6XDCZY7LzRFH/p+kM1CzKPil&#xA;t+W7xnrtuvRvEqsp86+SNP8ANSaM1y/o3Oh6rZaxZThQ5D2cwdo+q/DKnJDvts1DSmKskxV8Af8A&#xA;OUf/AJPbzN/0Y/8AdPt8VfTJ/NvQvy8/JPyTLcslxrd/ommxaRphkWMyyG0iXnI7ECOFCfjdtvpx&#xA;Vlf5dfl5Po89x5n8yXS6v541dR+kNSA/dQRdVs7NT9iBPvc7ntRVneKuxV2KvDvzF0WH82fzPHkO&#xA;SV18s+VbKS91uWI9dSvYmis0BH7UKMZRXr8SnFXyJFJ5k/Lb8ww1PQ1vy3fUZd+LtE1CPeOVPvU4&#xA;q/Rfyp5k03zP5b07X9NfnZalAlxF4ryHxI1P2kaqt7jFU1xV2Kvjr/nMr8u/0b5ksvO1lHS01oC1&#xA;1Gg2W7hT4GJ6fvYV+9Ce+Ks9/wCcOfzE/S/lO68nXsvK+0I+tYhj8TWUzVIHj6Upp8mUYqyuMf4y&#xA;/wCchXkI9TR/y6sfTTup1XUh8RFRQ8IBT/JYDFXruKvnzVIvP/5hfnBeeYPJk+mxaZ5CZtIsJtVW&#xA;aW3kvpkP12SJYf205KhJNKcSMVb/ADP/ACu/Przz5Wm0rW73y1dRQN9btltoruO49aJTxETvVVLg&#xA;lN9t8VfNP5N/mDd/l5+Yljq8nOOy5mz1q3IIJtZGAlBXryjZQ4HitMVforDNFPDHNC6yQyqHjkUg&#xA;qysKhgR1BGKpF+Yf/KAeZv8AtlX3/UM+Kvhb/nG7/wAnb5W/4zzf9Q0uKv0JxV2KuxV+cH51/wDk&#xA;3PN//bVuv+TpxV9gWf5e/nq+lwNB+bAQNChjiOgWAABUUXmHLbeNMVYb+Wfkr8yfLX/OQ3r+eNSO&#xA;tSajo92NO1fmzRyJFLCWiVGC+kU51KAUFaivXFX0jirDPzQ/Kfyp+Y2ijT9biaO5g5NYalDQT27s&#xA;N+JIIZGp8SHY+xAIVfE/5mfkz59/KzVI7yUvLpyyBtP8w2JdFDg1TkQecEvsT/qk0xV7b+QH/OUV&#xA;1qt/aeUvPUiteXBEOm65snqSHZIrkAAcm6LIOp2bf4sVfT2KvgD/AJyj/wDJ7eZv+jH/ALp9viqj&#xA;+a/5d+cNJ8s+TvNup376tpOr6PYRWs5XitmFt1aGy4gkBVi+y37R5HrWqr3X/nFD87BrOnx+Qtfn&#xA;rq1hH/uEuHO9xaxr/cGvWSFR8Pin+qSVX0hirsVSbzn5psPKnlXVPMV//vLplu87JUAuw2jjBP7U&#xA;jkIPc4q8S/LHyV/zkFpujT63Y33l+3u/NU36Z1AajDdPdiS5UMI5ClFUIDsg+zU4q8u/5yU/K/8A&#xA;Mq2ZPPvmd9KummaKxvZNHSeMAhSIpZllHcAR8geyjFWW/wDOGX5lAG98gahNQnlfaJyPU9bmBa/8&#xA;jQB/lnFX1VirsVYr+aPka288eRNW8ty8Vlu4uVlMw2juYzzhf5cwA1P2ajFXwP8Alx501b8tfzBt&#xA;tYMD+tp0sltqdgTxZ4iTHPCf8oUqP8oDFX2x/wA4/eXr3Tfy+i1fVBXXfNVxLruqORRjJetzjXfc&#xA;Ui4/D2JOKpt+cPng+TPIGpavb/FqkoFno8IoWe9ufghCg/a4byEeCnFVf8qfJK+S/Iel6E5530cf&#xA;r6nPXkZLyc+pOxb9r424gn9kDFWW4q+G/wDnLD8tv8L+fzr1lFw0jzLzuRxHwpeKR9ZT/ZlhJ/sj&#xA;4Yq9v/5xK/Mn/EnkQ+XL2XlqvlvjCnI/E9k9fQb/AJ50MfsAvjir1X8w/wDlAPM3/bKvv+oZ8VfC&#xA;3/ON3/k7fK3/ABnm/wCoaXFX6E4qhdW1Sw0nTLvVNQmW3sbKJ57md9gkcalmJ+gYql3kjzDL5k8o&#xA;aPr8sH1V9VtIrz6uCTwWZQ6ip6/CRir8+/zr/wDJueb/APtq3X/J04q/RXSf+OVZf8YIv+IDFXXd&#xA;lprXEGo3Ucfr2CyGC5fb0lkWkp5HoCq74qhfK/mTT/MugWWu6cJBY36GW29UBXKcioYgFvtUqN+m&#xA;KsJ/Jj8zW82jzFo2oziXXfLmqXVpMSFRpbX13FvLxQKuyqYzQfs174q9B1PTNO1XT7jTtSt47uwu&#xA;0MVzbTKGR0bYhgcVfnT+b/kceQ/zH1by/ayM1rayJNp8xPx+hMiyx1P8ycuJPiK4q/Qzyvc3t15Z&#xA;0i6vhS9nsreW6B6iV4lZ/wDhicVfCf8AzlH/AOT28zf9GP8A3T7fFX195U8q6N5r/Iry35f1mH19&#xA;Pv8Ay/pscq/tKfqkRSRDvR0YBlPiMVfEHnfyh5p/Kvz+1i0zwX+nSrdaTqcQ4+rEGrDPH18KMu9G&#xA;BXFX3D+Sv5q2H5j+TYdUQrFq9rxg1mzXb056faUEk+nJTkn0jqDirP8AFXjv5qkedvzH8s/ljEfU&#xA;022I8w+awN1NrbNxt7dv+Mspow8CpxV7FiqVea/Lem+Z/Leo6BqSc7LUoHt5fFeQ+F1r+0jUZfcY&#xA;q/OiWPzJ+W35hla+hrflu+qrb8XaJqg+8cqfepxV+ink/wA0ab5q8sab5i01q2epwLPGtalGOzxt&#xA;T9qNwUb3GKpxirsVfK/5y/8AOPt9rP556Le6bZSN5f8AM8yS61PCjcLd4KG6MjKCqetEOSFqcnJx&#xA;V9N6jqFlo2mNdSQzG1tgqiGytprqQAkIojt7VJZWAr+yuw3OwxV8rfnPrv5ted/OujX2g+S9bXy5&#xA;5ZukubCG6sZ4HubiN1dppEZeSqeAVK7gVOxJAVfR/k/z5beZI0RtH1fRr/0zJNaapp13aqnEgMBc&#xA;PGLdzVtgslSN6YqyfFXkP/OTen2eufl1d6GmlalquuExXejpp+n3d2FmSTgS00MTwp+7ZwwdweJ2&#xA;HTFXzR+WPl786vy6842PmW28m6zNDE3o39pHZzsZ7aT+8j+FGp05KabMBir6l8/fmRDefl5q8Ol+&#xA;XvMN3q2p6fPb2um/oTU0kWS4jaIeq7QLEAharUkO32a7Yq+T/wArvK/5meTfP+i+ZrnyLr91badO&#xA;Xngj066DtG6NG/DlHTkFeoB6+IxV9UTfn9MImMP5bed3lA+BX0copPuwlcj7sVeF/nH52/P38xIG&#xA;0mHyPrej+WuQZtPj0+8kknKGqG4l9FeQUioRQBXrUgEKvpnyzqEXlL8tPK1vqlrfvNa6XY2klvaW&#xA;F3eTiWK1QMrw20czx7oR8dADtXFXxP598kfmb5k87a7r8HknXorfVL+4uoI30y7DrFLIzIHojDlx&#xA;IrQ9cVfU+hfnzqkWjWcWp/lp5yjv4oUSdLbSXlh5qoBKO7xNQ07rirzf83/zW/OzzhpFz5f8u/l/&#xA;r2jaPdqYr24ksLt7ueI9Y/hiCxIw2YAsSNq0qMVfQf5V6bcaZ+WflWwuYZLe6t9JslubeZSkkcvo&#xA;IZEdSAVKuSKHcYq+VNX8r/nP+VX5uan5z0rQ7m/06e9up2mtEe4triyuZjIY5/SDNFtT7YHFgCK7&#xA;VVe96J/zkz+Xeo2CPcRanZaqRRtHbT7qacyD7SI0MckbbjarD5DFXnNp+TnmX82fzYuPPnm/S59B&#xA;8pB4fqek3oC3lzDbqqxxyRbmJX4lpOW+/Fa/aCr6R1jWLPR7L63dRXMsIYIEsrS5vZanp+5tY5pK&#xA;bdeNBir4Y/OXyx+YnnP8zNd8yad5M18WF7LGtr6ml3aMY7eCOBWK+machFXFX1h+S/mf1/JPl3QL&#xA;7SNX0jV9N023s7mDUNNvbeOtnEsJYXLxLb0fjyUc+Xtiql+e35P2X5keUzbxcYfMOnB5tGu22HMj&#xA;4oJD/vuXiAfA0PahVfKf5Y2H53/lr50Gpaf5R1mdYmEGraellcyRXEBb4l5xo6V2rG4rQ+IqCq+t&#xA;Ln85LWPy+dRg8q+ZptT9Pkmi/oXUEm9SmyNMYfq4FerBz8jirw78p9c/NfQPzS1vzh5x8ma3PbeZ&#xA;EMd5La2E80lueamHhGAXMUarw4jfjQ703VfU2j6va6tZLeWsdzFExKhLy1uLKUFdjWG6jhlA8Dxo&#xA;e2Ko3FXyD/zlB5M1Tzd56tNQ8oeWtZvbtbdrfWLpdMvIYHkgfjEVklijWQ8ajktVKhaE4qm//ONv&#xA;mD8w/IX1nyt5t8p68nl+4f6xZXsWm3lwLWZhR1ZYo5G9OSlfgB4t2+IkKv8A/9k=</xmpGImg:image>
               </rdf:li>
            </rdf:Alt>
         </xmp:Thumbnails>
         <xmpMM:RenditionClass>proof:pdf</xmpMM:RenditionClass>
         <xmpMM:OriginalDocumentID>uuid:65E6390686CF11DBA6E2D887CEACB407</xmpMM:OriginalDocumentID>
         <xmpMM:DocumentID>xmp.did:7325287a-d475-4a2f-90dc-cf82290f19d4</xmpMM:DocumentID>
         <xmpMM:InstanceID>xmp.iid:7325287a-d475-4a2f-90dc-cf82290f19d4</xmpMM:InstanceID>
         <xmpMM:DerivedFrom rdf:parseType="Resource">
            <stRef:instanceID>uuid:5a1037e7-9380-0f48-bb28-5e4003a1589a</stRef:instanceID>
            <stRef:documentID>xmp.did:aaa30eb2-a54e-4015-ab75-02043de25f1a</stRef:documentID>
            <stRef:originalDocumentID>uuid:65E6390686CF11DBA6E2D887CEACB407</stRef:originalDocumentID>
            <stRef:renditionClass>proof:pdf</stRef:renditionClass>
         </xmpMM:DerivedFrom>
         <xmpMM:History>
            <rdf:Seq>
               <rdf:li rdf:parseType="Resource">
                  <stEvt:action>saved</stEvt:action>
                  <stEvt:instanceID>xmp.iid:7325287a-d475-4a2f-90dc-cf82290f19d4</stEvt:instanceID>
                  <stEvt:when>2021-08-03T11:32:45+02:00</stEvt:when>
                  <stEvt:softwareAgent>Adobe Illustrator CC 23.1 (Macintosh)</stEvt:softwareAgent>
                  <stEvt:changed>/</stEvt:changed>
               </rdf:li>
            </rdf:Seq>
         </xmpMM:History>
         <illustrator:StartupProfile>Web</illustrator:StartupProfile>
         <xmpTPg:NPages>1</xmpTPg:NPages>
         <xmpTPg:HasVisibleTransparency>False</xmpTPg:HasVisibleTransparency>
         <xmpTPg:HasVisibleOverprint>False</xmpTPg:HasVisibleOverprint>
         <xmpTPg:MaxPageSize rdf:parseType="Resource">
            <stDim:w>219.485291</stDim:w>
            <stDim:h>34.000000</stDim:h>
            <stDim:unit>Pixels</stDim:unit>
         </xmpTPg:MaxPageSize>
         <xmpTPg:PlateNames>
            <rdf:Seq>
               <rdf:li>Cyan</rdf:li>
               <rdf:li>Magenta</rdf:li>
               <rdf:li>Yellow</rdf:li>
               <rdf:li>Black</rdf:li>
            </rdf:Seq>
         </xmpTPg:PlateNames>
         <xmpTPg:SwatchGroups>
            <rdf:Seq>
               <rdf:li rdf:parseType="Resource">
                  <xmpG:groupName>Default Swatch Group</xmpG:groupName>
                  <xmpG:groupType>0</xmpG:groupType>
                  <xmpG:Colorants>
                     <rdf:Seq>
                        <rdf:li rdf:parseType="Resource">
                           <xmpG:swatchName>White</xmpG:swatchName>
                           <xmpG:mode>RGB</xmpG:mode>
                           <xmpG:type>PROCESS</xmpG:type>
                           <xmpG:red>255</xmpG:red>
                           <xmpG:green>255</xmpG:green>
                           <xmpG:blue>255</xmpG:blue>
                        </rdf:li>
                        <rdf:li rdf:parseType="Resource">
                           <xmpG:swatchName>Black</xmpG:swatchName>
                           <xmpG:mode>RGB</xmpG:mode>
                           <xmpG:type>PROCESS</xmpG:type>
                           <xmpG:red>0</xmpG:red>
                           <xmpG:green>0</xmpG:green>
                           <xmpG:blue>0</xmpG:blue>
                        </rdf:li>
                        <rdf:li rdf:parseType="Resource">
                           <xmpG:swatchName>RGB Red</xmpG:swatchName>
                           <xmpG:mode>RGB</xmpG:mode>
                           <xmpG:type>PROCESS</xmpG:type>
                           <xmpG:red>255</xmpG:red>
                           <xmpG:green>0</xmpG:green>
                           <xmpG:blue>0</xmpG:blue>
                        </rdf:li>
                        <rdf:li rdf:parseType="Resource">
                           <xmpG:swatchName>RGB Yellow</xmpG:swatchName>
                           <xmpG:mode>RGB</xmpG:mode>
                           <xmpG:type>PROCESS</xmpG:type>
                           <xmpG:red>255</xmpG:red>
                           <xmpG:green>255</xmpG:green>
                           <xmpG:blue>0</xmpG:blue>
                        </rdf:li>
                        <rdf:li rdf:parseType="Resource">
                           <xmpG:swatchName>RGB Green</xmpG:swatchName>
                           <xmpG:mode>RGB</xmpG:mode>
                           <xmpG:type>PROCESS</xmpG:type>
                           <xmpG:red>0</xmpG:red>
                           <xmpG:green>255</xmpG:green>
                           <xmpG:blue>0</xmpG:blue>
                        </rdf:li>
                        <rdf:li rdf:parseType="Resource">
                           <xmpG:swatchName>RGB Cyan</xmpG:swatchName>
                           <xmpG:mode>RGB</xmpG:mode>
                           <xmpG:type>PROCESS</xmpG:type>
                           <xmpG:red>0</xmpG:red>
                           <xmpG:green>255</xmpG:green>
                           <xmpG:blue>255</xmpG:blue>
                        </rdf:li>
                        <rdf:li rdf:parseType="Resource">
                           <xmpG:swatchName>RGB Blue</xmpG:swatchName>
                           <xmpG:mode>RGB</xmpG:mode>
                           <xmpG:type>PROCESS</xmpG:type>
                           <xmpG:red>0</xmpG:red>
                           <xmpG:green>0</xmpG:green>
                           <xmpG:blue>255</xmpG:blue>
                        </rdf:li>
                        <rdf:li rdf:parseType="Resource">
                           <xmpG:swatchName>RGB Magenta</xmpG:swatchName>
                           <xmpG:mode>RGB</xmpG:mode>
                           <xmpG:type>PROCESS</xmpG:type>
                           <xmpG:red>255</xmpG:red>
                           <xmpG:green>0</xmpG:green>
                           <xmpG:blue>255</xmpG:blue>
                        </rdf:li>
                        <rdf:li rdf:parseType="Resource">
                           <xmpG:swatchName>R=193 G=39 B=45</xmpG:swatchName>
                           <xmpG:mode>RGB</xmpG:mode>
                           <xmpG:type>PROCESS</xmpG:type>
                           <xmpG:red>193</xmpG:red>
                           <xmpG:green>39</xmpG:green>
                           <xmpG:blue>45</xmpG:blue>
                        </rdf:li>
                        <rdf:li rdf:parseType="Resource">
                           <xmpG:swatchName>R=237 G=28 B=36</xmpG:swatchName>
                           <xmpG:mode>RGB</xmpG:mode>
                           <xmpG:type>PROCESS</xmpG:type>
                           <xmpG:red>237</xmpG:red>
                           <xmpG:green>28</xmpG:green>
                           <xmpG:blue>36</xmpG:blue>
                        </rdf:li>
                        <rdf:li rdf:parseType="Resource">
                           <xmpG:swatchName>R=241 G=90 B=36</xmpG:swatchName>
                           <xmpG:mode>RGB</xmpG:mode>
                           <xmpG:type>PROCESS</xmpG:type>
                           <xmpG:red>241</xmpG:red>
                           <xmpG:green>90</xmpG:green>
                           <xmpG:blue>36</xmpG:blue>
                        </rdf:li>
                        <rdf:li rdf:parseType="Resource">
                           <xmpG:swatchName>R=247 G=147 B=30</xmpG:swatchName>
                           <xmpG:mode>RGB</xmpG:mode>
                           <xmpG:type>PROCESS</xmpG:type>
                           <xmpG:red>247</xmpG:red>
                           <xmpG:green>147</xmpG:green>
                           <xmpG:blue>30</xmpG:blue>
                        </rdf:li>
                        <rdf:li rdf:parseType="Resource">
                           <xmpG:swatchName>R=251 G=176 B=59</xmpG:swatchName>
                           <xmpG:mode>RGB</xmpG:mode>
                           <xmpG:type>PROCESS</xmpG:type>
                           <xmpG:red>251</xmpG:red>
                           <xmpG:green>176</xmpG:green>
                           <xmpG:blue>59</xmpG:blue>
                        </rdf:li>
                        <rdf:li rdf:parseType="Resource">
                           <xmpG:swatchName>R=252 G=238 B=33</xmpG:swatchName>
                           <xmpG:mode>RGB</xmpG:mode>
                           <xmpG:type>PROCESS</xmpG:type>
                           <xmpG:red>252</xmpG:red>
                           <xmpG:green>238</xmpG:green>
                           <xmpG:blue>33</xmpG:blue>
                        </rdf:li>
                        <rdf:li rdf:parseType="Resource">
                           <xmpG:swatchName>R=217 G=224 B=33</xmpG:swatchName>
                           <xmpG:mode>RGB</xmpG:mode>
                           <xmpG:type>PROCESS</xmpG:type>
                           <xmpG:red>217</xmpG:red>
                           <xmpG:green>224</xmpG:green>
                           <xmpG:blue>33</xmpG:blue>
                        </rdf:li>
                        <rdf:li rdf:parseType="Resource">
                           <xmpG:swatchName>R=140 G=198 B=63</xmpG:swatchName>
                           <xmpG:mode>RGB</xmpG:mode>
                           <xmpG:type>PROCESS</xmpG:type>
                           <xmpG:red>140</xmpG:red>
                           <xmpG:green>198</xmpG:green>
                           <xmpG:blue>63</xmpG:blue>
                        </rdf:li>
                        <rdf:li rdf:parseType="Resource">
                           <xmpG:swatchName>R=57 G=181 B=74</xmpG:swatchName>
                           <xmpG:mode>RGB</xmpG:mode>
                           <xmpG:type>PROCESS</xmpG:type>
                           <xmpG:red>57</xmpG:red>
                           <xmpG:green>181</xmpG:green>
                           <xmpG:blue>74</xmpG:blue>
                        </rdf:li>
                        <rdf:li rdf:parseType="Resource">
                           <xmpG:swatchName>R=0 G=146 B=69</xmpG:swatchName>
                           <xmpG:mode>RGB</xmpG:mode>
                           <xmpG:type>PROCESS</xmpG:type>
                           <xmpG:red>0</xmpG:red>
                           <xmpG:green>146</xmpG:green>
                           <xmpG:blue>69</xmpG:blue>
                        </rdf:li>
                        <rdf:li rdf:parseType="Resource">
                           <xmpG:swatchName>R=0 G=104 B=55</xmpG:swatchName>
                           <xmpG:mode>RGB</xmpG:mode>
                           <xmpG:type>PROCESS</xmpG:type>
                           <xmpG:red>0</xmpG:red>
                           <xmpG:green>104</xmpG:green>
                           <xmpG:blue>55</xmpG:blue>
                        </rdf:li>
                        <rdf:li rdf:parseType="Resource">
                           <xmpG:swatchName>R=34 G=181 B=115</xmpG:swatchName>
                           <xmpG:mode>RGB</xmpG:mode>
                           <xmpG:type>PROCESS</xmpG:type>
                           <xmpG:red>34</xmpG:red>
                           <xmpG:green>181</xmpG:green>
                           <xmpG:blue>115</xmpG:blue>
                        </rdf:li>
                        <rdf:li rdf:parseType="Resource">
                           <xmpG:swatchName>R=0 G=169 B=157</xmpG:swatchName>
                           <xmpG:mode>RGB</xmpG:mode>
                           <xmpG:type>PROCESS</xmpG:type>
                           <xmpG:red>0</xmpG:red>
                           <xmpG:green>169</xmpG:green>
                           <xmpG:blue>157</xmpG:blue>
                        </rdf:li>
                        <rdf:li rdf:parseType="Resource">
                           <xmpG:swatchName>R=41 G=171 B=226</xmpG:swatchName>
                           <xmpG:mode>RGB</xmpG:mode>
                           <xmpG:type>PROCESS</xmpG:type>
                           <xmpG:red>41</xmpG:red>
                           <xmpG:green>171</xmpG:green>
                           <xmpG:blue>226</xmpG:blue>
                        </rdf:li>
                        <rdf:li rdf:parseType="Resource">
                           <xmpG:swatchName>R=0 G=113 B=188</xmpG:swatchName>
                           <xmpG:mode>RGB</xmpG:mode>
                           <xmpG:type>PROCESS</xmpG:type>
                           <xmpG:red>0</xmpG:red>
                           <xmpG:green>113</xmpG:green>
                           <xmpG:blue>188</xmpG:blue>
                        </rdf:li>
                        <rdf:li rdf:parseType="Resource">
                           <xmpG:swatchName>R=46 G=49 B=146</xmpG:swatchName>
                           <xmpG:mode>RGB</xmpG:mode>
                           <xmpG:type>PROCESS</xmpG:type>
                           <xmpG:red>46</xmpG:red>
                           <xmpG:green>49</xmpG:green>
                           <xmpG:blue>146</xmpG:blue>
                        </rdf:li>
                        <rdf:li rdf:parseType="Resource">
                           <xmpG:swatchName>R=27 G=20 B=100</xmpG:swatchName>
                           <xmpG:mode>RGB</xmpG:mode>
                           <xmpG:type>PROCESS</xmpG:type>
                           <xmpG:red>27</xmpG:red>
                           <xmpG:green>20</xmpG:green>
                           <xmpG:blue>100</xmpG:blue>
                        </rdf:li>
                        <rdf:li rdf:parseType="Resource">
                           <xmpG:swatchName>R=102 G=45 B=145</xmpG:swatchName>
                           <xmpG:mode>RGB</xmpG:mode>
                           <xmpG:type>PROCESS</xmpG:type>
                           <xmpG:red>102</xmpG:red>
                           <xmpG:green>45</xmpG:green>
                           <xmpG:blue>145</xmpG:blue>
                        </rdf:li>
                        <rdf:li rdf:parseType="Resource">
                           <xmpG:swatchName>R=147 G=39 B=143</xmpG:swatchName>
                           <xmpG:mode>RGB</xmpG:mode>
                           <xmpG:type>PROCESS</xmpG:type>
                           <xmpG:red>147</xmpG:red>
                           <xmpG:green>39</xmpG:green>
                           <xmpG:blue>143</xmpG:blue>
                        </rdf:li>
                        <rdf:li rdf:parseType="Resource">
                           <xmpG:swatchName>R=158 G=0 B=93</xmpG:swatchName>
                           <xmpG:mode>RGB</xmpG:mode>
                           <xmpG:type>PROCESS</xmpG:type>
                           <xmpG:red>158</xmpG:red>
                           <xmpG:green>0</xmpG:green>
                           <xmpG:blue>93</xmpG:blue>
                        </rdf:li>
                        <rdf:li rdf:parseType="Resource">
                           <xmpG:swatchName>R=212 G=20 B=90</xmpG:swatchName>
                           <xmpG:mode>RGB</xmpG:mode>
                           <xmpG:type>PROCESS</xmpG:type>
                           <xmpG:red>212</xmpG:red>
                           <xmpG:green>20</xmpG:green>
                           <xmpG:blue>90</xmpG:blue>
                        </rdf:li>
                        <rdf:li rdf:parseType="Resource">
                           <xmpG:swatchName>R=237 G=30 B=121</xmpG:swatchName>
                           <xmpG:mode>RGB</xmpG:mode>
                           <xmpG:type>PROCESS</xmpG:type>
                           <xmpG:red>237</xmpG:red>
                           <xmpG:green>30</xmpG:green>
                           <xmpG:blue>121</xmpG:blue>
                        </rdf:li>
                        <rdf:li rdf:parseType="Resource">
                           <xmpG:swatchName>R=199 G=178 B=153</xmpG:swatchName>
                           <xmpG:mode>RGB</xmpG:mode>
                           <xmpG:type>PROCESS</xmpG:type>
                           <xmpG:red>199</xmpG:red>
                           <xmpG:green>178</xmpG:green>
                           <xmpG:blue>153</xmpG:blue>
                        </rdf:li>
                        <rdf:li rdf:parseType="Resource">
                           <xmpG:swatchName>R=153 G=134 B=117</xmpG:swatchName>
                           <xmpG:mode>RGB</xmpG:mode>
                           <xmpG:type>PROCESS</xmpG:type>
                           <xmpG:red>153</xmpG:red>
                           <xmpG:green>134</xmpG:green>
                           <xmpG:blue>117</xmpG:blue>
                        </rdf:li>
                        <rdf:li rdf:parseType="Resource">
                           <xmpG:swatchName>R=115 G=99 B=87</xmpG:swatchName>
                           <xmpG:mode>RGB</xmpG:mode>
                           <xmpG:type>PROCESS</xmpG:type>
                           <xmpG:red>115</xmpG:red>
                           <xmpG:green>99</xmpG:green>
                           <xmpG:blue>87</xmpG:blue>
                        </rdf:li>
                        <rdf:li rdf:parseType="Resource">
                           <xmpG:swatchName>R=83 G=71 B=65</xmpG:swatchName>
                           <xmpG:mode>RGB</xmpG:mode>
                           <xmpG:type>PROCESS</xmpG:type>
                           <xmpG:red>83</xmpG:red>
                           <xmpG:green>71</xmpG:green>
                           <xmpG:blue>65</xmpG:blue>
                        </rdf:li>
                        <rdf:li rdf:parseType="Resource">
                           <xmpG:swatchName>R=198 G=156 B=109</xmpG:swatchName>
                           <xmpG:mode>RGB</xmpG:mode>
                           <xmpG:type>PROCESS</xmpG:type>
                           <xmpG:red>198</xmpG:red>
                           <xmpG:green>156</xmpG:green>
                           <xmpG:blue>109</xmpG:blue>
                        </rdf:li>
                        <rdf:li rdf:parseType="Resource">
                           <xmpG:swatchName>R=166 G=124 B=82</xmpG:swatchName>
                           <xmpG:mode>RGB</xmpG:mode>
                           <xmpG:type>PROCESS</xmpG:type>
                           <xmpG:red>166</xmpG:red>
                           <xmpG:green>124</xmpG:green>
                           <xmpG:blue>82</xmpG:blue>
                        </rdf:li>
                        <rdf:li rdf:parseType="Resource">
                           <xmpG:swatchName>R=140 G=98 B=57</xmpG:swatchName>
                           <xmpG:mode>RGB</xmpG:mode>
                           <xmpG:type>PROCESS</xmpG:type>
                           <xmpG:red>140</xmpG:red>
                           <xmpG:green>98</xmpG:green>
                           <xmpG:blue>57</xmpG:blue>
                        </rdf:li>
                        <rdf:li rdf:parseType="Resource">
                           <xmpG:swatchName>R=117 G=76 B=36</xmpG:swatchName>
                           <xmpG:mode>RGB</xmpG:mode>
                           <xmpG:type>PROCESS</xmpG:type>
                           <xmpG:red>117</xmpG:red>
                           <xmpG:green>76</xmpG:green>
                           <xmpG:blue>36</xmpG:blue>
                        </rdf:li>
                        <rdf:li rdf:parseType="Resource">
                           <xmpG:swatchName>R=96 G=56 B=19</xmpG:swatchName>
                           <xmpG:mode>RGB</xmpG:mode>
                           <xmpG:type>PROCESS</xmpG:type>
                           <xmpG:red>96</xmpG:red>
                           <xmpG:green>56</xmpG:green>
                           <xmpG:blue>19</xmpG:blue>
                        </rdf:li>
                        <rdf:li rdf:parseType="Resource">
                           <xmpG:swatchName>R=66 G=33 B=11</xmpG:swatchName>
                           <xmpG:mode>RGB</xmpG:mode>
                           <xmpG:type>PROCESS</xmpG:type>
                           <xmpG:red>66</xmpG:red>
                           <xmpG:green>33</xmpG:green>
                           <xmpG:blue>11</xmpG:blue>
                        </rdf:li>
                     </rdf:Seq>
                  </xmpG:Colorants>
               </rdf:li>
               <rdf:li rdf:parseType="Resource">
                  <xmpG:groupName>Grays</xmpG:groupName>
                  <xmpG:groupType>1</xmpG:groupType>
                  <xmpG:Colorants>
                     <rdf:Seq>
                        <rdf:li rdf:parseType="Resource">
                           <xmpG:swatchName>R=0 G=0 B=0</xmpG:swatchName>
                           <xmpG:mode>RGB</xmpG:mode>
                           <xmpG:type>PROCESS</xmpG:type>
                           <xmpG:red>0</xmpG:red>
                           <xmpG:green>0</xmpG:green>
                           <xmpG:blue>0</xmpG:blue>
                        </rdf:li>
                        <rdf:li rdf:parseType="Resource">
                           <xmpG:swatchName>R=26 G=26 B=26</xmpG:swatchName>
                           <xmpG:mode>RGB</xmpG:mode>
                           <xmpG:type>PROCESS</xmpG:type>
                           <xmpG:red>26</xmpG:red>
                           <xmpG:green>26</xmpG:green>
                           <xmpG:blue>26</xmpG:blue>
                        </rdf:li>
                        <rdf:li rdf:parseType="Resource">
                           <xmpG:swatchName>R=51 G=51 B=51</xmpG:swatchName>
                           <xmpG:mode>RGB</xmpG:mode>
                           <xmpG:type>PROCESS</xmpG:type>
                           <xmpG:red>51</xmpG:red>
                           <xmpG:green>51</xmpG:green>
                           <xmpG:blue>51</xmpG:blue>
                        </rdf:li>
                        <rdf:li rdf:parseType="Resource">
                           <xmpG:swatchName>R=77 G=77 B=77</xmpG:swatchName>
                           <xmpG:mode>RGB</xmpG:mode>
                           <xmpG:type>PROCESS</xmpG:type>
                           <xmpG:red>77</xmpG:red>
                           <xmpG:green>77</xmpG:green>
                           <xmpG:blue>77</xmpG:blue>
                        </rdf:li>
                        <rdf:li rdf:parseType="Resource">
                           <xmpG:swatchName>R=102 G=102 B=102</xmpG:swatchName>
                           <xmpG:mode>RGB</xmpG:mode>
                           <xmpG:type>PROCESS</xmpG:type>
                           <xmpG:red>102</xmpG:red>
                           <xmpG:green>102</xmpG:green>
                           <xmpG:blue>102</xmpG:blue>
                        </rdf:li>
                        <rdf:li rdf:parseType="Resource">
                           <xmpG:swatchName>R=128 G=128 B=128</xmpG:swatchName>
                           <xmpG:mode>RGB</xmpG:mode>
                           <xmpG:type>PROCESS</xmpG:type>
                           <xmpG:red>128</xmpG:red>
                           <xmpG:green>128</xmpG:green>
                           <xmpG:blue>128</xmpG:blue>
                        </rdf:li>
                        <rdf:li rdf:parseType="Resource">
                           <xmpG:swatchName>R=153 G=153 B=153</xmpG:swatchName>
                           <xmpG:mode>RGB</xmpG:mode>
                           <xmpG:type>PROCESS</xmpG:type>
                           <xmpG:red>153</xmpG:red>
                           <xmpG:green>153</xmpG:green>
                           <xmpG:blue>153</xmpG:blue>
                        </rdf:li>
                        <rdf:li rdf:parseType="Resource">
                           <xmpG:swatchName>R=179 G=179 B=179</xmpG:swatchName>
                           <xmpG:mode>RGB</xmpG:mode>
                           <xmpG:type>PROCESS</xmpG:type>
                           <xmpG:red>179</xmpG:red>
                           <xmpG:green>179</xmpG:green>
                           <xmpG:blue>179</xmpG:blue>
                        </rdf:li>
                        <rdf:li rdf:parseType="Resource">
                           <xmpG:swatchName>R=204 G=204 B=204</xmpG:swatchName>
                           <xmpG:mode>RGB</xmpG:mode>
                           <xmpG:type>PROCESS</xmpG:type>
                           <xmpG:red>204</xmpG:red>
                           <xmpG:green>204</xmpG:green>
                           <xmpG:blue>204</xmpG:blue>
                        </rdf:li>
                        <rdf:li rdf:parseType="Resource">
                           <xmpG:swatchName>R=230 G=230 B=230</xmpG:swatchName>
                           <xmpG:mode>RGB</xmpG:mode>
                           <xmpG:type>PROCESS</xmpG:type>
                           <xmpG:red>230</xmpG:red>
                           <xmpG:green>230</xmpG:green>
                           <xmpG:blue>230</xmpG:blue>
                        </rdf:li>
                        <rdf:li rdf:parseType="Resource">
                           <xmpG:swatchName>R=242 G=242 B=242</xmpG:swatchName>
                           <xmpG:mode>RGB</xmpG:mode>
                           <xmpG:type>PROCESS</xmpG:type>
                           <xmpG:red>242</xmpG:red>
                           <xmpG:green>242</xmpG:green>
                           <xmpG:blue>242</xmpG:blue>
                        </rdf:li>
                     </rdf:Seq>
                  </xmpG:Colorants>
               </rdf:li>
               <rdf:li rdf:parseType="Resource">
                  <xmpG:groupName>Web Color Group</xmpG:groupName>
                  <xmpG:groupType>1</xmpG:groupType>
                  <xmpG:Colorants>
                     <rdf:Seq>
                        <rdf:li rdf:parseType="Resource">
                           <xmpG:swatchName>R=63 G=169 B=245</xmpG:swatchName>
                           <xmpG:mode>RGB</xmpG:mode>
                           <xmpG:type>PROCESS</xmpG:type>
                           <xmpG:red>63</xmpG:red>
                           <xmpG:green>169</xmpG:green>
                           <xmpG:blue>245</xmpG:blue>
                        </rdf:li>
                        <rdf:li rdf:parseType="Resource">
                           <xmpG:swatchName>R=122 G=201 B=67</xmpG:swatchName>
                           <xmpG:mode>RGB</xmpG:mode>
                           <xmpG:type>PROCESS</xmpG:type>
                           <xmpG:red>122</xmpG:red>
                           <xmpG:green>201</xmpG:green>
                           <xmpG:blue>67</xmpG:blue>
                        </rdf:li>
                        <rdf:li rdf:parseType="Resource">
                           <xmpG:swatchName>R=255 G=147 B=30</xmpG:swatchName>
                           <xmpG:mode>RGB</xmpG:mode>
                           <xmpG:type>PROCESS</xmpG:type>
                           <xmpG:red>255</xmpG:red>
                           <xmpG:green>147</xmpG:green>
                           <xmpG:blue>30</xmpG:blue>
                        </rdf:li>
                        <rdf:li rdf:parseType="Resource">
                           <xmpG:swatchName>R=255 G=29 B=37</xmpG:swatchName>
                           <xmpG:mode>RGB</xmpG:mode>
                           <xmpG:type>PROCESS</xmpG:type>
                           <xmpG:red>255</xmpG:red>
                           <xmpG:green>29</xmpG:green>
                           <xmpG:blue>37</xmpG:blue>
                        </rdf:li>
                        <rdf:li rdf:parseType="Resource">
                           <xmpG:swatchName>R=255 G=123 B=172</xmpG:swatchName>
                           <xmpG:mode>RGB</xmpG:mode>
                           <xmpG:type>PROCESS</xmpG:type>
                           <xmpG:red>255</xmpG:red>
                           <xmpG:green>123</xmpG:green>
                           <xmpG:blue>172</xmpG:blue>
                        </rdf:li>
                        <rdf:li rdf:parseType="Resource">
                           <xmpG:swatchName>R=189 G=204 B=212</xmpG:swatchName>
                           <xmpG:mode>RGB</xmpG:mode>
                           <xmpG:type>PROCESS</xmpG:type>
                           <xmpG:red>189</xmpG:red>
                           <xmpG:green>204</xmpG:green>
                           <xmpG:blue>212</xmpG:blue>
                        </rdf:li>
                     </rdf:Seq>
                  </xmpG:Colorants>
               </rdf:li>
            </rdf:Seq>
         </xmpTPg:SwatchGroups>
         <pdf:Producer>Adobe PDF library 15.00</pdf:Producer>
         <pdfx:CreatorVersion>21.0.0</pdfx:CreatorVersion>
      </rdf:Description>
   </rdf:RDF>
</x:xmpmeta>
                                                                                                    
                                                                                                    
                                                                                                    
                                                                                                    
                                                                                                    
                                                                                                    
                                                                                                    
                                                                                                    
                                                                                                    
                                                                                                    
                                                                                                    
                                                                                                    
                                                                                                    
                                                                                                    
                                                                                                    
                                                                                                    
                                                                                                    
                                                                                                    
                                                                                                    
                                                                                                    
                           
<?xpacket end="w"?>
	</metadata>
<g>
	<path d="M34.947,0.892c0,0.21-0.053,0.315-0.158,0.315c-1.26,0-2.466,0.561-3.621,1.68c-1.154,1.12-2.081,2.624-2.78,4.512
		L18.681,33.32c-0.036,0.137-0.229,0.209-0.578,0.209c-0.349,0-0.542-0.072-0.577-0.209L4.145,4.933
		c-0.629-1.26-1.26-2.195-1.889-2.808c-0.629-0.611-1.33-0.918-2.099-0.918C0.053,1.206,0,1.102,0,0.892s0.053-0.315,0.158-0.315
		c0.525,0,0.892,0.018,1.102,0.052c0.7,0.071,1.609,0.106,2.729,0.106c3.008,0,5.562-0.035,7.661-0.106
		c0.559-0.034,1.26-0.052,2.099-0.052c0.105,0,0.157,0.105,0.157,0.315s-0.052,0.315-0.157,0.315c-1.049,0-1.863,0.219-2.44,0.656
		c-0.577,0.439-0.866,1.059-0.866,1.863c0,0.595,0.192,1.312,0.577,2.151l9.078,19.362L26.918,7.24
		c0.349-0.979,0.525-1.818,0.525-2.518c0-1.084-0.324-1.942-0.971-2.571c-0.648-0.629-1.583-0.945-2.807-0.945
		c-0.106,0-0.158-0.105-0.158-0.315s0.052-0.315,0.158-0.315l2.57,0.052c1.47,0.071,2.781,0.106,3.935,0.106
		c0.664,0,1.487-0.035,2.467-0.106l2.151-0.052C34.894,0.577,34.947,0.682,34.947,0.892z"/>
	<path d="M64.014,33.057c0,0.209-0.087,0.314-0.262,0.314c-0.7,0-1.783-0.035-3.253-0.105c-1.539-0.07-2.642-0.105-3.306-0.105
		c-0.874,0-1.941,0.035-3.201,0.105c-1.19,0.07-2.134,0.105-2.834,0.105c-0.139,0-0.209-0.105-0.209-0.314
		c0-0.211,0.07-0.316,0.209-0.316c0.91,0,1.566-0.096,1.968-0.289c0.402-0.191,0.604-0.533,0.604-1.023
		c0-0.594-0.349-1.591-1.049-2.99l-5.457-10.757h-9.339l-3.725,8.239c-0.455,1.015-0.683,1.959-0.683,2.832
		c0,1.261,0.446,2.24,1.338,2.939c0.892,0.701,2.09,1.049,3.594,1.049c0.174,0,0.262,0.105,0.262,0.316
		c0,0.209-0.088,0.314-0.262,0.314c-0.63,0-1.54-0.035-2.729-0.105c-1.329-0.07-2.484-0.105-3.463-0.105
		c-0.944,0-2.081,0.035-3.411,0.105c-1.19,0.07-2.151,0.105-2.886,0.105c-0.139,0-0.21-0.105-0.21-0.314
		c0-0.211,0.071-0.316,0.21-0.316c0.979,0,1.802-0.201,2.467-0.603c0.664-0.402,1.328-1.119,1.993-2.152
		c0.664-1.031,1.451-2.561,2.361-4.59l11.387-25.03c0.07-0.105,0.226-0.157,0.471-0.157c0.28,0,0.438,0.052,0.472,0.157
		L58.19,26.184c1.225,2.483,2.238,4.197,3.044,5.142c0.804,0.945,1.644,1.416,2.518,1.416
		C63.927,32.742,64.014,32.846,64.014,33.057z M38.566,16.214h7.924l-4.198-8.291L38.566,16.214z"/>
	<path d="M73.827,28.911c0,0.91,0.07,1.566,0.209,1.968c0.139,0.404,0.411,0.674,0.814,0.814c0.402,0.139,1.058,0.209,1.968,0.209
		h1.784c2.727,0,5.088-0.726,7.083-2.177c1.994-1.451,3.323-3.418,3.989-5.902c0-0.07,0.07-0.106,0.209-0.106
		c0.07,0,0.15,0.027,0.236,0.079c0.088,0.052,0.131,0.096,0.131,0.131c-0.314,3.463-0.471,6.349-0.471,8.657
		c0,0.281-0.061,0.482-0.184,0.605c-0.123,0.123-0.324,0.182-0.603,0.182H64.225c-0.071,0-0.105-0.105-0.105-0.314
		c0-0.211,0.034-0.316,0.105-0.316c1.119,0,1.933-0.086,2.44-0.262c0.506-0.174,0.857-0.517,1.049-1.023
		c0.192-0.506,0.288-1.285,0.288-2.335V4.827c0-1.049-0.096-1.818-0.288-2.309c-0.193-0.489-0.551-0.83-1.076-1.023
		c-0.525-0.192-1.329-0.289-2.413-0.289c-0.071,0-0.105-0.105-0.105-0.315s0.034-0.315,0.105-0.315L66.9,0.629
		c1.609,0.071,2.938,0.106,3.988,0.106c1.049,0,2.379-0.035,3.989-0.106l2.676-0.052c0.105,0,0.157,0.105,0.157,0.315
		s-0.052,0.315-0.157,0.315c-1.085,0-1.889,0.097-2.413,0.289c-0.525,0.193-0.875,0.543-1.049,1.049
		c-0.176,0.507-0.262,1.285-0.262,2.335V28.911z"/>
	<path d="M117.481,24.924c0.107,0,0.201,0.026,0.291,0.079c0.086,0.052,0.131,0.096,0.131,0.131
		c-0.353,2.728-0.525,5.211-0.525,7.45c0,0.281-0.053,0.482-0.16,0.605c-0.102,0.123-0.316,0.182-0.627,0.182H93.398
		c-0.105,0-0.156-0.105-0.156-0.314c0-0.211,0.051-0.316,0.156-0.316c1.119,0,1.933-0.086,2.441-0.262
		c0.506-0.174,0.847-0.517,1.023-1.023c0.174-0.506,0.262-1.285,0.262-2.335V4.827c0-1.049-0.088-1.818-0.262-2.309
		c-0.176-0.489-0.525-0.83-1.049-1.023c-0.525-0.192-1.33-0.289-2.415-0.289c-0.105,0-0.156-0.105-0.156-0.315
		s0.051-0.315,0.156-0.315h22.247c0.348,0,0.525,0.158,0.525,0.472l0.107,6.978c0,0.071-0.098,0.123-0.291,0.158
		c-0.193,0.035-0.303,0-0.34-0.105c-0.558-2.029-1.504-3.534-2.833-4.513c-1.328-0.979-3.079-1.469-5.247-1.469h-1.574
		c-1.049,0-1.818,0.228-2.308,0.682c-0.49,0.455-0.734,1.155-0.734,2.099v10.704h4.354c2.029,0,3.587-0.349,4.669-1.049
		c1.086-0.699,1.627-1.679,1.627-2.938c0-0.105,0.094-0.158,0.287-0.158s0.291,0.053,0.291,0.158l-0.053,4.722l0.053,2.519
		c0.07,1.189,0.102,2.134,0.102,2.833c0,0.071-0.102,0.106-0.312,0.106c-0.213,0-0.316-0.035-0.316-0.106
		c0-1.434-0.553-2.562-1.652-3.384c-1.103-0.822-2.685-1.233-4.749-1.233h-4.302v11.857c0,1.015,0.191,1.767,0.576,2.257
		c0.385,0.49,0.998,0.734,1.837,0.734h1.732c2.728,0,4.915-0.558,6.559-1.679c1.644-1.119,2.849-2.85,3.62-5.194
		C117.272,24.959,117.342,24.924,117.481,24.924z"/>
	<path d="M130.31,9.235c0.648,0.98,1.443,1.837,2.388,2.571c0.945,0.735,2.22,1.626,3.831,2.676c1.748,1.12,3.148,2.099,4.198,2.938
		s1.941,1.863,2.675,3.069c0.736,1.207,1.103,2.598,1.103,4.172c0,1.819-0.49,3.436-1.47,4.854c-0.98,1.416-2.335,2.517-4.067,3.304
		S135.303,34,133.169,34c-1.574,0-3.218-0.219-4.932-0.656c-1.716-0.437-2.87-0.918-3.464-1.443
		c-0.174-0.139-0.305-0.271-0.394-0.394c-0.088-0.121-0.131-0.322-0.131-0.603l-0.158-8.342v-0.052c0-0.139,0.088-0.218,0.262-0.237
		c0.176-0.017,0.281,0.044,0.316,0.183c1.049,2.135,1.968,3.866,2.755,5.195c0.787,1.33,1.783,2.501,2.99,3.515
		c1.207,1.015,2.581,1.521,4.12,1.521c1.398,0,2.552-0.375,3.462-1.127c0.91-0.752,1.365-2.037,1.365-3.856
		c0-1.538-0.34-2.886-1.023-4.04s-1.515-2.134-2.492-2.938c-0.98-0.804-2.326-1.766-4.04-2.886
		c-1.681-1.084-2.984-2.012-3.911-2.781c-0.926-0.769-1.722-1.696-2.386-2.78c-0.666-1.084-0.998-2.361-0.998-3.831
		c0-1.854,0.533-3.419,1.601-4.696c1.066-1.277,2.439-2.222,4.12-2.834C131.911,0.306,133.676,0,135.531,0
		c1.224,0,2.466,0.114,3.726,0.341c1.258,0.228,2.273,0.498,3.044,0.813c0.314,0.14,0.525,0.289,0.629,0.446
		c0.105,0.158,0.158,0.36,0.158,0.604v7.714c0,0.105-0.088,0.183-0.262,0.236c-0.176,0.052-0.281,0.027-0.316-0.079l-0.42-0.997
		c-0.875-2.203-1.898-4.075-3.068-5.614c-1.172-1.539-2.808-2.309-4.907-2.309c-1.4,0-2.546,0.403-3.437,1.207
		c-0.892,0.804-1.338,1.977-1.338,3.515C129.339,7.136,129.662,8.256,130.31,9.235z"/>
	<path d="M182.23,33.057c0,0.209-0.051,0.314-0.158,0.314h-5.876c-0.56,0-1.031,0.016-1.416,0.053
		c-0.385,0.033-0.701,0.051-0.945,0.051c-0.56,0-1.041-0.131-1.443-0.394c-0.402-0.262-0.892-0.742-1.47-1.443
		c-0.576-0.699-1.599-2.046-3.068-4.039c-0.176-0.244-0.377-0.515-0.605-0.814c-0.228-0.296-0.48-0.637-0.76-1.023l-6.873-9.235
		l-1.156,1.154v11.439c0,1.084,0.088,1.871,0.262,2.361c0.176,0.49,0.517,0.822,1.025,0.996c0.506,0.176,1.32,0.262,2.439,0.262
		c0.139,0,0.209,0.105,0.209,0.316c0,0.209-0.07,0.314-0.209,0.314c-1.154,0-2.064-0.016-2.728-0.051l-3.935-0.053l-3.884,0.053
		c-0.699,0.035-1.644,0.051-2.833,0.051c-0.07,0-0.105-0.105-0.105-0.314c0-0.211,0.035-0.316,0.105-0.316
		c1.119,0,1.941-0.086,2.466-0.262c0.525-0.174,0.883-0.517,1.076-1.023s0.289-1.285,0.289-2.335V4.827
		c0-1.049-0.096-1.818-0.289-2.309c-0.193-0.489-0.543-0.83-1.049-1.023c-0.508-0.192-1.304-0.289-2.388-0.289
		c-0.105,0-0.158-0.105-0.158-0.315s0.053-0.315,0.158-0.315l2.781,0.052c1.609,0.071,2.886,0.106,3.831,0.106
		c1.049,0,2.378-0.035,3.987-0.106l2.677-0.052c0.105,0,0.158,0.105,0.158,0.315s-0.053,0.315-0.158,0.315
		c-1.084,0-1.882,0.106-2.388,0.316c-0.506,0.209-0.857,0.569-1.049,1.075c-0.193,0.507-0.289,1.286-0.289,2.336v11.124
		l9.865-10.074c1.015-1.015,1.523-1.942,1.523-2.781c0-0.629-0.281-1.119-0.84-1.47c-0.56-0.348-1.347-0.525-2.361-0.525
		c-0.105,0-0.158-0.105-0.158-0.315s0.053-0.315,0.158-0.315l2.466,0.052c1.539,0.071,2.974,0.106,4.302,0.106
		c1.435,0,2.921-0.035,4.46-0.106l2.361-0.052c0.107,0,0.158,0.105,0.158,0.315s-0.051,0.315-0.158,0.315
		c-1.609,0-3.376,0.464-5.298,1.391c-1.925,0.927-3.673,2.16-5.247,3.7l-5.93,6.034l7.766,10.494
		c2.273,3.253,3.978,5.553,5.116,6.899c1.136,1.347,2.054,2.187,2.755,2.519c0.699,0.332,1.591,0.498,2.675,0.498
		C182.179,32.742,182.23,32.846,182.23,33.057z"/>
	<path d="M219.485,33.057c0,0.209-0.088,0.314-0.262,0.314c-0.699,0-1.783-0.035-3.253-0.105c-1.539-0.07-2.642-0.105-3.306-0.105
		c-0.875,0-1.941,0.035-3.2,0.105c-1.191,0.07-2.136,0.105-2.835,0.105c-0.139,0-0.209-0.105-0.209-0.314
		c0-0.211,0.07-0.316,0.209-0.316c0.91,0,1.566-0.096,1.968-0.289c0.402-0.191,0.605-0.533,0.605-1.023
		c0-0.594-0.35-1.591-1.049-2.99l-5.458-10.757h-9.34l-3.724,8.239c-0.455,1.015-0.683,1.959-0.683,2.832
		c0,1.261,0.447,2.24,1.338,2.939c0.892,0.701,2.089,1.049,3.593,1.049c0.176,0,0.262,0.105,0.262,0.316
		c0,0.209-0.086,0.314-0.262,0.314c-0.629,0-1.539-0.035-2.728-0.105c-1.33-0.07-2.484-0.105-3.462-0.105
		c-0.945,0-2.082,0.035-3.411,0.105c-1.191,0.07-2.152,0.105-2.886,0.105c-0.139,0-0.211-0.105-0.211-0.314
		c0-0.211,0.072-0.316,0.211-0.316c0.978,0,1.8-0.201,2.466-0.603c0.664-0.402,1.328-1.119,1.994-2.152
		c0.664-1.031,1.451-2.561,2.361-4.59l11.386-25.03c0.07-0.105,0.228-0.157,0.471-0.157c0.281,0,0.437,0.052,0.473,0.157
		l13.118,25.817c1.224,2.483,2.238,4.197,3.042,5.142c0.806,0.945,1.644,1.416,2.519,1.416
		C219.397,32.742,219.485,32.846,219.485,33.057z M194.037,16.214h7.924l-4.198-8.291L194.037,16.214z"/>
</g>
</svg>
